<?xml version="1.0" standalone="no"?><!DOCTYPE svg PUBLIC "-//W3C//DTD SVG 1.1//EN" "http://www.w3.org/Graphics/SVG/1.1/DTD/svg11.dtd"><svg t="1721185837597" class="icon" viewBox="0 0 1024 1024" version="1.1" xmlns="http://www.w3.org/2000/svg" p-id="8009" xmlns:xlink="http://www.w3.org/1999/xlink" width="200" height="200"><path d="M682.666667 810.666667v-85.333334h-85.333334l85.333334-85.333333h85.333333v256H256v-256h85.333333l85.333334 85.333333H341.333333v85.333334h341.333334z m-170.666667-93.866667C371.2 601.6 298.666667 490.666667 298.666667 384c0-119.466667 93.866667-213.333333 213.333333-213.333333s213.333333 93.866667 213.333333 213.333333c0 106.666667-72.533333 217.6-213.333333 332.8z m0-106.666667c85.333333-76.8 128-149.333333 128-226.133333 0-72.533333-55.466667-128-128-128S384 311.466667 384 384c0 76.8 42.666667 149.333333 128 226.133333z m0-183.466666c-25.6 0-42.666667-17.066667-42.666667-42.666667s17.066667-42.666667 42.666667-42.666667 42.666667 17.066667 42.666667 42.666667-17.066667 42.666667-42.666667 42.666667z" fill="#ffffff" p-id="8010"></path></svg>